# This file uses centimeters as units for non-parametric coordinates.

mtllib BloodCell.mtl
g default
v 0.207517 -0.546021 -0.327139
v -0.023481 -0.542426 -0.345004
v -0.582911 -0.509284 0.153749
v -0.550780 -0.515559 0.457671
v -0.352405 -0.428776 0.650562
v 0.033925 -0.503726 0.509572
v 0.376399 -0.546060 -0.098797
v 0.357024 -0.527942 -0.297619
v 0.532537 -0.318823 -0.843466
v -0.051726 -0.329832 -0.754060
v -0.556320 -0.358454 -0.312113
v 0.838283 -0.363991 -0.222234
v 0.832249 -0.355892 -0.679558
v 0.645040 -0.082519 -1.192000
v -0.067909 -0.092658 -0.989982
v -0.751474 -0.092605 -0.431075
v -1.135744 -0.105000 0.294913
v -1.074732 -0.143235 0.897641
v -0.641376 -0.096300 1.182741
v 0.067909 -0.092658 0.989981
v 0.751473 -0.092605 0.431074
v 1.135743 -0.105001 -0.294913
v 1.069296 -0.150562 -0.896408
v 0.724537 0.195504 -1.339251
v -0.077445 0.195504 -1.128997
v -0.849846 0.195504 -0.487506
v -1.297634 0.195504 0.340196
v -1.258285 0.197047 1.045003
v -0.724537 0.195504 1.339250
v 0.077445 0.195504 1.128997
v 0.849846 0.195504 0.487506
v 1.297634 0.195504 -0.340196
v 1.258285 0.197047 -1.045003
v 0.747429 0.428230 -1.381565
v -0.079892 0.428230 -1.164668
v -0.876697 0.428230 -0.502909
v -1.338633 0.428230 0.350945
v -1.289258 0.428230 1.070749
v -0.747429 0.428230 1.381564
v 0.079892 0.428230 1.164668
v 0.876697 0.428230 0.502909
v 1.338633 0.428230 -0.350945
v 1.289257 0.428230 -1.070749
v 0.738227 0.526240 -1.364555
v -0.078909 0.526240 -1.150329
v -0.865904 0.526240 -0.496717
v -1.322153 0.526240 0.346624
v -1.273384 0.526240 1.057566
v -0.738227 0.526240 1.364554
v 0.078909 0.526240 1.150329
v 0.865903 0.526240 0.496717
v 1.322152 0.526240 -0.346624
v 1.273384 0.526240 -1.057566
v 0.710848 0.570320 -1.313946
v -0.075982 0.570320 -1.107666
v -0.833789 0.570320 -0.478295
v -1.273116 0.570320 0.333768
v -1.226157 0.570320 1.018343
v -0.710847 0.570320 1.313945
v 0.075982 0.570320 1.107665
v 0.833788 0.570320 0.478295
v 1.273116 0.570320 -0.333768
v 1.226157 0.570320 -1.018343
v 0.665964 0.569232 -1.230983
v -0.071184 0.569232 -1.037727
v -0.781143 0.569232 -0.448095
v -1.192731 0.569232 0.312694
v -1.148737 0.569232 0.954045
v -0.665964 0.569232 1.230982
v 0.071185 0.569232 1.037727
v 0.781143 0.569232 0.448095
v 1.192731 0.569232 -0.312694
v 1.148736 0.569232 -0.954044
v 0.528434 0.411361 -0.979221
v -0.060563 0.458047 -0.882891
v -0.664591 0.458047 -0.381236
v -1.014767 0.458047 0.266038
v -0.943305 0.441549 0.784381
v -0.566597 0.458047 1.047311
v 0.060563 0.458047 0.882890
v 0.664590 0.458047 0.381236
v 1.014767 0.458047 -0.266038
v 0.940938 0.439320 -0.781361
v 0.338516 0.059044 -0.539108
v -0.030425 -0.026065 -0.447194
v -0.346148 -0.021620 -0.198398
v -0.523227 -0.024119 0.137384
v -0.520836 0.050025 0.432493
v -0.298786 -0.021432 0.552043
v 0.030873 -0.023954 0.453911
v 0.250260 0.006177 0.145949
v 0.547096 0.057183 -0.146879
v 0.523309 -0.019288 -0.434668
v 0.321940 -0.435046 0.183452
vt 0.025000 0.087500
vt 0.125000 0.087500
vt 0.325000 0.156250
vt 0.425000 0.156250
vt 0.525000 0.156250
vt 0.625000 0.156250
vt 0.825000 0.087500
vt 0.925000 0.087500
vt 1.000000 0.087500
vt 0.025000 0.225000
vt 0.125000 0.225000
vt 0.225000 0.225000
vt 0.825000 0.225000
vt 0.925000 0.225000
vt 1.000000 0.225000
vt 0.025000 0.325000
vt 0.125000 0.325000
vt 0.225000 0.325000
vt 0.325000 0.325000
vt 0.425000 0.325000
vt 0.525000 0.325000
vt 0.625000 0.325000
vt 0.725000 0.325000
vt 0.825000 0.325000
vt 0.925000 0.325000
vt 1.000000 0.325000
vt 0.025000 0.425000
vt 0.125000 0.425000
vt 0.225000 0.425000
vt 0.325000 0.425000
vt 0.425000 0.425000
vt 0.525000 0.425000
vt 0.625000 0.425000
vt 0.725000 0.425000
vt 0.825000 0.425000
vt 0.925000 0.425000
vt 1.000000 0.425000
vt 0.025000 0.500000
vt 0.125000 0.500000
vt 0.225000 0.500000
vt 0.325000 0.500000
vt 0.425000 0.500000
vt 0.525000 0.500000
vt 0.625000 0.500000
vt 0.725000 0.500000
vt 0.825000 0.500000
vt 0.925000 0.500000
vt 1.000000 0.500000
vt 0.025000 0.550000
vt 0.125000 0.550000
vt 0.225000 0.550000
vt 0.325000 0.550000
vt 0.425000 0.550000
vt 0.525000 0.550000
vt 0.625000 0.550000
vt 0.725000 0.550000
vt 0.825000 0.550000
vt 0.925000 0.550000
vt 1.000000 0.550000
vt 0.025000 0.600000
vt 0.125000 0.600000
vt 0.225000 0.600000
vt 0.325000 0.600000
vt 0.425000 0.600000
vt 0.525000 0.600000
vt 0.625000 0.600000
vt 0.725000 0.600000
vt 0.825000 0.600000
vt 0.925000 0.600000
vt 1.000000 0.600000
vt 0.025000 0.650000
vt 0.125000 0.650000
vt 0.225000 0.650000
vt 0.325000 0.650000
vt 0.425000 0.650000
vt 0.525000 0.650000
vt 0.625000 0.650000
vt 0.725000 0.650000
vt 0.825000 0.650000
vt 0.925000 0.650000
vt 1.000000 0.650000
vt 0.025000 0.725000
vt 0.125000 0.725000
vt 0.225000 0.725000
vt 0.325000 0.725000
vt 0.425000 0.725000
vt 0.525000 0.725000
vt 0.625000 0.725000
vt 0.725000 0.725000
vt 0.825000 0.725000
vt 0.925000 0.725000
vt 1.000000 0.725000
vt 0.025000 0.875000
vt 0.125000 0.875000
vt 0.225000 0.875000
vt 0.325000 0.875000
vt 0.425000 0.875000
vt 0.525000 0.875000
vt 0.625000 0.875000
vt 0.731250 0.881250
vt 0.825000 0.875000
vt 0.925000 0.875000
vt 1.000000 0.875000
vt 0.075000 0.000000
vt 0.237500 0.075000
vt 0.375000 0.000000
vt 0.475000 0.000000
vt 0.575000 0.000000
vt 0.731250 0.150000
vt 0.875000 0.000000
vt 0.975000 0.000000
vt 0.075000 1.000000
vt 0.175000 1.000000
vt 0.275000 1.000000
vt 0.375000 1.000000
vt 0.475000 1.000000
vt 0.575000 1.000000
vt 0.875000 1.000000
vt 0.975000 1.000000
vn 0.031173 -0.995269 -0.092021
vn -0.135757 -0.988397 -0.068129
vn -0.259786 -0.860039 -0.439141
vn 0.037934 -0.871815 -0.488364
vn 0.032719 -0.991674 0.124550
vn -0.369064 -0.871465 -0.323020
vn -0.284809 -0.943181 -0.171155
vn -0.043990 -0.984759 0.168272
vn 0.501251 -0.845182 0.185514
vn -0.102203 -0.993827 -0.043147
vn 0.338069 -0.910098 -0.239650
vn -0.377194 -0.561104 -0.736809
vn 0.069024 -0.672786 -0.736611
vn -0.655841 -0.531074 -0.536501
vn -0.761895 -0.622351 -0.179429
vn -0.135333 -0.971752 0.193348
vn -0.565120 -0.744502 0.355466
vn -0.057734 -0.967090 0.247800
vn -0.060109 -0.691284 0.720078
vn 0.115848 -0.961286 0.250018
vn 0.378357 -0.603688 0.701717
vn 0.628105 -0.577072 0.521989
vn 0.755632 -0.624271 0.198257
vn 0.592005 -0.717916 -0.366232
vn -0.442197 -0.269045 -0.855615
vn 0.112229 -0.346096 -0.931463
vn -0.747893 -0.251498 -0.614334
vn -0.930532 -0.300538 -0.209254
vn -0.784106 -0.385740 0.486193
vn -0.112290 -0.347287 0.931012
vn 0.441946 -0.269708 0.855536
vn 0.747893 -0.251498 0.614334
vn 0.930419 -0.301014 0.209071
vn 0.783958 -0.385567 -0.486567
vn -0.457436 -0.003151 -0.889237
vn 0.128350 0.001413 -0.991728
vn -0.773204 -0.002937 -0.634151
vn -0.976767 0.001236 -0.214302
vn -0.848008 0.006464 0.529944
vn -0.128350 0.001413 0.991728
vn 0.457436 -0.003151 0.889237
vn 0.773204 -0.002937 0.634151
vn 0.976767 0.001236 0.214302
vn 0.848009 0.006464 -0.529943
vn -0.418584 0.418048 -0.806240
vn 0.100135 0.511499 -0.853429
vn -0.708792 0.397782 -0.582566
vn -0.866891 0.458092 -0.196602
vn -0.709514 0.554803 0.434492
vn -0.100135 0.511500 0.853429
vn 0.418584 0.418049 0.806240
vn 0.708792 0.397783 0.582566
vn 0.866891 0.458092 0.196602
vn 0.709514 0.554803 -0.434492
vn -0.185550 0.916910 -0.353338
vn 0.031827 0.944780 -0.326158
vn -0.320204 0.909863 -0.263853
vn -0.357980 0.929818 -0.085380
vn -0.254745 0.955061 0.151535
vn -0.031827 0.944780 0.326157
vn 0.185550 0.916910 0.353337
vn 0.320204 0.909863 0.263853
vn 0.357980 0.929818 0.085381
vn 0.254745 0.955061 -0.151535
vn 0.157499 0.941958 0.296495
vn -0.023126 0.964409 0.263402
vn 0.269343 0.936982 0.222527
vn 0.289996 0.954345 0.071604
vn 0.198747 0.973105 -0.116469
vn 0.022359 0.965445 -0.259645
vn -0.156021 0.942978 -0.294024
vn -0.269343 0.936982 -0.222527
vn -0.290350 0.954230 -0.071705
vn -0.201229 0.972469 0.117520
vn 0.306093 0.726584 0.615128
vn -0.055886 0.809474 0.584490
vn 0.557800 0.690168 0.461006
vn 0.625008 0.768672 0.136042
vn 0.461264 0.845624 -0.268619
vn 0.070513 0.817403 -0.571735
vn -0.336754 0.727378 -0.597928
vn -0.541388 0.718350 -0.436889
vn -0.609655 0.775018 -0.166335
vn -0.447029 0.851108 0.275282
vn 0.109215 0.921193 0.373464
vn -0.003412 0.918115 0.396299
vn 0.326770 0.906336 0.267910
vn 0.359045 0.933318 0.002032
vn 0.315443 0.936235 -0.154791
vn 0.111358 0.965994 -0.233356
vn -0.265232 0.863432 -0.429112
vn -0.141669 0.985443 -0.093976
vn -0.574206 0.792729 -0.204615
vn -0.276865 0.950025 0.144213
s 1
g pSphere1
usemtl lambert2SG
f 1/1/1 2/2/2 10/11/3 9/10/4
f 2/2/2 94/105/5 11/12/6 10/11/3
f 94/105/5 3/3/7 11/12/6
f 94/109/5 7/7/8 12/13/9
f 7/7/8 8/8/10 13/14/11 12/13/9
f 8/8/10 1/9/1 9/15/4 13/14/11
f 9/10/4 10/11/3 15/17/12 14/16/13
f 10/11/3 11/12/6 16/18/14 15/17/12
f 11/12/6 3/3/7 17/19/15 16/18/14
f 3/3/7 4/4/16 18/20/17 17/19/15
f 4/4/16 5/5/18 19/21/19 18/20/17
f 5/5/18 6/6/20 20/22/21 19/21/19
f 6/6/20 94/109/5 21/23/22 20/22/21
f 94/109/5 12/13/9 22/24/23 21/23/22
f 12/13/9 13/14/11 23/25/24 22/24/23
f 13/14/11 9/15/4 14/26/13 23/25/24
f 14/16/13 15/17/12 25/28/25 24/27/26
f 15/17/12 16/18/14 26/29/27 25/28/25
f 16/18/14 17/19/15 27/30/28 26/29/27
f 17/19/15 18/20/17 28/31/29 27/30/28
f 18/20/17 19/21/19 29/32/30 28/31/29
f 19/21/19 20/22/21 30/33/31 29/32/30
f 20/22/21 21/23/22 31/34/32 30/33/31
f 21/23/22 22/24/23 32/35/33 31/34/32
f 22/24/23 23/25/24 33/36/34 32/35/33
f 23/25/24 14/26/13 24/37/26 33/36/34
f 24/27/26 25/28/25 35/39/35 34/38/36
f 25/28/25 26/29/27 36/40/37 35/39/35
f 26/29/27 27/30/28 37/41/38 36/40/37
f 27/30/28 28/31/29 38/42/39 37/41/38
f 28/31/29 29/32/30 39/43/40 38/42/39
f 29/32/30 30/33/31 40/44/41 39/43/40
f 30/33/31 31/34/32 41/45/42 40/44/41
f 31/34/32 32/35/33 42/46/43 41/45/42
f 32/35/33 33/36/34 43/47/44 42/46/43
f 33/36/34 24/37/26 34/48/36 43/47/44
f 34/38/36 35/39/35 45/50/45 44/49/46
f 35/39/35 36/40/37 46/51/47 45/50/45
f 36/40/37 37/41/38 47/52/48 46/51/47
f 37/41/38 38/42/39 48/53/49 47/52/48
f 38/42/39 39/43/40 49/54/50 48/53/49
f 39/43/40 40/44/41 50/55/51 49/54/50
f 40/44/41 41/45/42 51/56/52 50/55/51
f 41/45/42 42/46/43 52/57/53 51/56/52
f 42/46/43 43/47/44 53/58/54 52/57/53
f 43/47/44 34/48/36 44/59/46 53/58/54
f 44/49/46 45/50/45 55/61/55 54/60/56
f 45/50/45 46/51/47 56/62/57 55/61/55
f 46/51/47 47/52/48 57/63/58 56/62/57
f 47/52/48 48/53/49 58/64/59 57/63/58
f 48/53/49 49/54/50 59/65/60 58/64/59
f 49/54/50 50/55/51 60/66/61 59/65/60
f 50/55/51 51/56/52 61/67/62 60/66/61
f 51/56/52 52/57/53 62/68/63 61/67/62
f 52/57/53 53/58/54 63/69/64 62/68/63
f 53/58/54 44/59/46 54/70/56 63/69/64
f 54/60/56 55/61/55 65/72/65 64/71/66
f 55/61/55 56/62/57 66/73/67 65/72/65
f 56/62/57 57/63/58 67/74/68 66/73/67
f 57/63/58 58/64/59 68/75/69 67/74/68
f 58/64/59 59/65/60 69/76/70 68/75/69
f 59/65/60 60/66/61 70/77/71 69/76/70
f 60/66/61 61/67/62 71/78/72 70/77/71
f 61/67/62 62/68/63 72/79/73 71/78/72
f 62/68/63 63/69/64 73/80/74 72/79/73
f 63/69/64 54/70/56 64/81/66 73/80/74
f 64/71/66 65/72/65 75/83/75 74/82/76
f 65/72/65 66/73/67 76/84/77 75/83/75
f 66/73/67 67/74/68 77/85/78 76/84/77
f 67/74/68 68/75/69 78/86/79 77/85/78
f 68/75/69 69/76/70 79/87/80 78/86/79
f 69/76/70 70/77/71 80/88/81 79/87/80
f 70/77/71 71/78/72 81/89/82 80/88/81
f 71/78/72 72/79/73 82/90/83 81/89/82
f 72/79/73 73/80/74 83/91/84 82/90/83
f 73/80/74 64/81/66 74/92/76 83/91/84
f 74/82/76 75/83/75 85/94/85 84/93/86
f 75/83/75 76/84/77 86/95/87 85/94/85
f 76/84/77 77/85/78 87/96/88 86/95/87
f 77/85/78 78/86/79 88/97/89 87/96/88
f 78/86/79 79/87/80 89/98/90 88/97/89
f 79/87/80 80/88/81 90/99/91 89/98/90
f 80/88/81 81/89/82 91/100/92 90/99/91
f 81/89/82 82/90/83 92/101/93 91/100/92
f 82/90/83 83/91/84 93/102/94 92/101/93
f 83/91/84 74/92/76 84/103/86 93/102/94
f 2/2/2 1/1/1 94/104/5
f 4/4/16 3/3/7 94/106/5
f 5/5/18 4/4/16 94/107/5
f 6/6/20 5/5/18 94/108/5
f 8/8/10 7/7/8 94/110/5
f 1/9/1 8/8/10 94/111/5
f 84/93/86 85/94/85 91/112/92
f 85/94/85 86/95/87 91/113/92
f 86/95/87 87/96/88 91/114/92
f 87/96/88 88/97/89 91/115/92
f 88/97/89 89/98/90 91/116/92
f 89/98/90 90/99/91 91/117/92
f 92/101/93 93/102/94 91/118/92
f 93/102/94 84/103/86 91/119/92
g default
v -0.450000 0.102949 0.645084
v -0.225095 0.020506 0.572544
v -0.000000 -0.037633 0.500000
v 0.150000 -0.000408 0.500000
v 0.450000 0.100319 0.500000
v 0.675000 0.225968 0.450000
v -0.816837 0.208948 0.595084
v -0.854684 0.242755 0.445084
v 0.750000 0.272787 0.300000
v -0.750000 0.271038 0.345084
v -0.338747 0.060745 0.047597
v 0.018171 -0.039378 0.025767
v 0.483722 0.113894 0.028950
v 0.750000 0.272787 0.200000
v -0.750000 0.268408 0.100000
v 0.750000 0.272787 0.100000
v -0.750000 0.268408 0.000000
v 0.750000 0.272787 0.000000
v -0.750000 0.268408 -0.100000
v 0.750000 0.272787 -0.100000
v -0.750008 0.268401 -0.255265
v -0.253065 0.068392 -0.269668
v 0.424512 -0.000408 -0.781551
v 0.574512 0.049956 -0.781551
v 0.792233 0.272787 -0.200000
v 0.943566 0.272787 -0.300000
v -0.675000 0.222683 -0.450000
v 0.124512 -0.009167 -0.781551
v 0.262779 -0.038229 -0.781645
v 0.968202 0.272787 -0.495023
v -0.175488 0.100319 -0.781551
v -0.025488 0.047766 -0.781551
v 0.724512 0.100319 -0.781551
v 0.874512 0.179148 -0.781551
v 1.024512 0.272787 -0.781551
vt 0.200000 0.125000
vt 0.350000 0.125000
vt 0.500000 0.125000
vt 0.600000 0.125000
vt 0.750000 0.125000
vt 0.950000 0.112500
vt 0.050000 0.112500
vt 0.000000 0.200000
vt 1.000000 0.200000
vt 0.000000 0.300000
vt 0.275000 0.450000
vt 0.550000 0.450000
vt 0.825000 0.450000
vt 1.000000 0.300000
vt 0.000000 0.400000
vt 1.000000 0.400000
vt 0.000000 0.500000
vt 1.000000 0.500000
vt 0.050000 0.525000
vt 1.000000 0.600000
vt 0.050000 0.750000
vt 0.275000 0.750000
vt 0.575000 0.881250
vt 0.762500 0.887500
vt 1.000000 0.700000
vt 1.000000 0.800000
vt 0.075000 0.950000
vt 0.337500 0.950000
vt 0.500000 0.950000
vt 1.000000 0.900000
vt 0.200000 1.000000
vt 0.300000 1.000000
vt 0.800000 1.000000
vt 0.900000 1.000000
vt 1.000000 1.000000
vn 0.924366 -0.345753 0.161254
vn 0.833956 0.532471 0.144883
vn 0.414021 0.897284 0.153192
vn -0.089672 -0.902648 0.420933
vn 0.351713 0.935636 0.029715
vn 0.318638 0.945964 0.060185
vn 0.303571 0.952797 0.004866
vn 0.011167 0.999938 -0.000504
vn -0.075754 0.997093 0.008198
vn -0.277669 0.960672 -0.002926
vn -0.400751 0.916186 -0.001046
vn -0.462283 0.886190 -0.031013
vn -0.502835 0.864379 -0.002284
vn -0.516477 0.856284 0.005420
vn -0.514450 0.857516 0.002707
vn -1.000000 -0.000042 0.000000
vn -0.512422 0.858734 0.000000
vn 0.000000 0.000000 0.000000
vn -0.512422 0.858734 0.000000
vn -0.523298 0.849430 -0.068036
vn 0.231693 0.972764 0.006957
vn 0.361708 0.930000 0.065325
vn -0.035718 0.996835 -0.071017
vn -0.364653 0.861515 -0.353299
vn -0.356822 0.907560 -0.221390
vn -0.323789 0.928552 -0.181528
vn 0.201319 0.923119 0.327600
vn 0.332808 0.937026 0.105931
vn -0.028393 0.972507 -0.231136
vn -0.449621 0.887329 -0.102414
vn 0.213734 0.585661 0.781869
vn 0.000000 0.000014 1.000000
vn -0.274017 0.553367 -0.786574
vn 0.000000 0.000000 -1.000000
vn -0.438989 0.886521 -0.146179
s 1
g pPlane1
usemtl lambert3SG
f 102/127/95 101/126/96 113/138/97 104/129/98
f 101/126/96 95/120/99 105/130/100 113/138/97
f 95/120/99 96/121/101 105/130/100
f 96/121/101 97/122/102 106/131/103 105/130/100
f 97/122/102 98/123/104 106/131/103
f 98/123/104 99/124/105 107/132/106 106/131/103
f 99/124/105 100/125/107 107/132/106
f 100/125/107 103/128/108 108/133/109 107/132/106
f 104/129/98 113/138/97 109/134/110
f 107/132/106 108/133/109 110/135/111
f 109/134/110 113/138/97 111/136/112
f 107/132/106 110/135/111 112/137/113
f 107/132/106 112/137/113 114/139/114
f 113/138/97 105/130/100 116/141/115 115/140/116
f 105/130/100 106/131/103 117/142/117 116/141/115
f 106/131/103 107/132/106 118/143/118 117/142/117
f 107/132/106 114/139/114 119/144/119 118/143/118
f 118/143/118 119/144/119 120/145/120
f 115/140/116 116/141/115 122/147/121 121/146/122
f 116/141/115 117/142/117 123/148/123 122/147/121
f 118/143/118 120/145/120 124/149/124
f 121/146/122 122/147/121 125/150/125
f 122/147/121 126/151/126 125/150/125
f 118/143/118 128/153/127 127/152/128
f 118/143/118 124/149/124 129/154/129 128/153/127
